<svg width="24" height="24" viewBox="0 0 24 24" fill="none" xmlns="http://www.w3.org/2000/svg">
<path d="M23.25 2.25V9C23.25 9.82922 22.5783 10.5 21.75 10.5H15.75C14.9217 10.5 14.25 9.82922 14.25 9C14.25 8.17078 14.9217 7.5 15.75 7.5H17.8303C16.5141 5.64844 14.3672 4.5 12 4.5C8.87813 4.5 6.13594 6.49219 5.17969 9.45938C4.92656 10.2469 4.08188 10.6828 3.29016 10.425C2.50219 10.1716 2.06906 9.32484 2.32406 8.53687C3.68391 4.32844 7.57031 1.5 12 1.5C15.345 1.5 18.3797 3.11812 20.25 5.72297V2.25C20.25 1.42078 20.9217 0.75 21.75 0.75C22.5783 0.75 23.25 1.42078 23.25 2.25Z" fill="#36D95A"/>
<path opacity="0.4" d="M21.675 15.4594C20.3156 19.6734 16.425 22.5 11.9578 22.5C8.65313 22.5 5.62031 20.8828 3.75 18.2766V21.75C3.75 22.5792 3.07828 23.25 2.25 23.25C1.42172 23.25 0.75 22.5792 0.75 21.75V15C0.75 14.1708 1.42172 13.5 2.25 13.5H8.25C9.07828 13.5 9.75 14.1708 9.75 15C9.75 15.8292 9.07828 16.5 8.25 16.5H6.16875C7.48594 18.3516 9.63281 19.5 12 19.5C15.1209 19.5 17.8641 17.5064 18.8203 14.5406C19.0745 13.7541 19.9162 13.3205 20.7094 13.5755C21.4969 13.7859 21.9328 14.6719 21.675 15.4594Z" fill="white"/>
</svg>
