<svg width="20" height="20" viewBox="0 0 20 20" fill="none" xmlns="http://www.w3.org/2000/svg">
<path d="M10 5C9.48438 5 9.0625 5.42188 9.0625 5.9375V10.625C9.0625 10.9204 9.20184 11.1977 9.43742 11.3746L11.9374 13.2496C12.1055 13.375 12.2695 13.4375 12.4648 13.4375C12.7499 13.4375 13.0313 13.3081 13.2156 13.0627C13.5263 12.6479 13.4421 12.0604 13.0282 11.7506L10.9375 10.1562V5.9375C10.9375 5.42188 10.5195 5 10 5Z" fill="black"/>
<path opacity="0.4" d="M19.1914 8.10938C18.918 6.69532 16.8594 0.621096 10 0.625002C7.08984 0.623439 4.89453 1.8418 3.37305 3.37188L2.12461 2.12266C1.57148 1.56914 0.625 1.96094 0.625 2.74375V7.49375C0.625 7.83875 0.904687 8.11836 1.24961 8.11836H5.9957C6.77891 8.11836 7.17148 7.17149 6.61758 6.61758L5.14062 5.14063C7.19141 3.07891 9.51172 3.12344 10 3.12344C13.6367 3.12222 16.1406 5.77383 16.7148 8.49844C17.6566 12.9438 14.2777 16.8734 10 16.8734C8.88281 16.8734 7.82812 16.6035 6.89492 16.1277C6.4043 15.8776 5.81289 15.9518 5.42383 16.3413C4.83242 16.9335 4.96953 17.9436 5.71238 18.3288C6.99609 18.9961 8.45312 19.375 10 19.375C15.793 19.375 20.3594 14.1172 19.1914 8.10938Z" fill="black"/>
</svg>
