<svg width="20" height="20" viewBox="0 0 20 20" fill="none" xmlns="http://www.w3.org/2000/svg">
<path d="M6.25 7.5C4.87109 7.5 3.75 8.62109 3.75 10C3.75 11.3789 4.8707 12.5 6.25 12.5C7.6293 12.5 8.75 11.3793 8.75 10C8.75 8.6207 7.62891 7.5 6.25 7.5ZM13.75 7.5C12.3707 7.5 11.25 8.6207 11.25 10C11.25 11.3793 12.3707 12.5 13.75 12.5C15.1293 12.5 16.25 11.3793 16.25 10C16.25 8.6207 15.1289 7.5 13.75 7.5Z" fill="#544242"/>
<path opacity="0.4" d="M10 0C4.47656 0 0 3.91797 0 8.75C0 11.4879 1.4418 13.9297 3.69141 15.5352C4.06617 15.8049 4.28477 16.2426 4.21875 16.7027L3.75664 19.2887C3.70195 19.6641 3.99219 20 4.37109 20H7.5V17.8125C7.5 17.6406 7.64062 17.5 7.8125 17.5H8.4375C8.60938 17.5 8.75 17.6406 8.75 17.8125V20H11.25V17.8125C11.25 17.6404 11.3904 17.5 11.5625 17.5H12.1875C12.3596 17.5 12.5 17.6404 12.5 17.8125V20H15.6293C16.0089 20 16.298 19.6643 16.2434 19.2895L15.7824 16.7035C15.7165 16.2469 15.9313 15.8059 16.3098 15.5359C18.5586 13.9297 20 11.4883 20 8.75C20 3.91797 15.5234 0 10 0ZM6.25 12.5C4.8707 12.5 3.75 11.3793 3.75 10C3.75 8.6207 4.8707 7.5 6.25 7.5C7.6293 7.5 8.75 8.6207 8.75 10C8.75 11.3793 7.62891 12.5 6.25 12.5ZM13.75 12.5C12.3707 12.5 11.25 11.3793 11.25 10C11.25 8.6207 12.3707 7.5 13.75 7.5C15.1293 7.5 16.25 8.6207 16.25 10C16.25 11.3793 15.1289 12.5 13.75 12.5Z" fill="#7D7B7B"/>
</svg>
