<svg width="20" height="20" viewBox="0 0 20 20" fill="none" xmlns="http://www.w3.org/2000/svg">
<path d="M5 17.4648V8.71484C5 8.02461 4.44023 7.5 3.75 7.5H1.25C0.559766 7.5 0 8.05977 0 8.71484V17.4297C0 18.1199 0.559766 18.6445 1.25 18.6445H3.75C4.44141 18.7148 5 18.1875 5 17.4648Z" fill="black"/>
<path opacity="0.4" d="M20 8.75391C20 7.71875 19.1609 6.87969 18.125 6.87969H12.4023C13.2918 5.39883 13.7508 3.72031 13.7508 3.12891C13.75 2.20781 13.0273 1.25 11.8164 1.25C9.35039 1.25 10.7867 4.22461 7.58984 6.78125L6.95312 7.28906C6.49219 7.66016 6.25781 8.20312 6.25391 8.75C6.25299 8.75091 6.25391 8.75 6.25391 8.75L6.25 15C6.25 15.5898 6.52785 16.1457 7 16.4996L8.33359 17.4992C9.41406 18.3125 10.7305 18.75 12.082 18.75H14.375C15.4109 18.75 16.25 17.9113 16.25 16.8758C16.25 16.7338 16.2312 16.5968 16.2013 16.4637C16.9531 16.2188 17.5 15.5234 17.5 14.6875C17.5 14.3302 17.3946 13.9996 17.2211 13.7156C18.0898 13.5547 18.75 12.793 18.75 11.8789C18.75 11.3906 18.5589 10.95 18.2531 10.6164C19.2266 10.5508 20 9.74609 20 8.75391Z" fill="black"/>
</svg>
